# xmcd
#
# Track frame offsets: 
#        150
#        8984
#        17912
#        29908
#        51438
#        62030
#        72746
#        100948
#        115252
#        141122
#        169359
#        182265
#
# Disc length: 2642 seconds
#
# Revision: 1
# Processed by: cddbd v1.5.2PL0 Copyright (c) Steve Scherf et al.
# Submitted via: ExactAudioCopy v0.90b4
#
DISCID=b20a500c
DTITLE=Various Artist - Blade Runner Trilogy [CD2] - Previously Un
DTITLE=released and Bonus Material
DYEAR=2007
DGENRE=New Age
TTITLE0=Vangelis - Longing
TTITLE1=Vangelis - Unveiled Twinkling Space
TTITLE2=Vangelis - Dr. Tyrell's Owl
TTITLE3=Vangelis - At Mr. Chew's
TTITLE4=Vangelis - Leo's Room
TTITLE5=Vangelis - One Alone
TTITLE6=Vangelis - Deckard And Roy's Duel
TTITLE7=Vangelis - Dr. Tyrell's Death
TTITLE8=Vangelis - Desolation Path
TTITLE9=Vangelis - Empty Streets
TTITLE10=Vangelis - Mechanical Dolls
TTITLE11=Vangelis - Fading Away
EXTD=YEAR: 2007
EXTT0=
EXTT1=
EXTT2=
EXTT3=
EXTT4=
EXTT5=
EXTT6=
EXTT7=
EXTT8=
EXTT9=
EXTT10=
EXTT11=
PLAYORDER=
